<svg id="Layer_1" data-name="Layer 1"
    xmlns="http://www.w3.org/2000/svg"
    xmlns:xlink="http://www.w3.org/1999/xlink" viewBox="0 0 792 612">
    <defs>
        <style>.cls-1,.cls-3,.cls-4{fill:none;}.cls-2{clip-path:url(#clip-path);}.cls-3,.cls-4{stroke:#000;stroke-miterlimit:10;}.cls-3{stroke-width:0.25px;}.cls-5{font-size:11px;}.cls-11,.cls-12,.cls-13,.cls-5,.cls-6{font-family:SegoeUI, Segoe UI;}.cls-6{font-size:10px;}.cls-7{font-size:15px;font-family:SegoeUI-Bold, Segoe UI;font-weight:700;}.cls-8{letter-spacing:-0.03em;}.cls-9{letter-spacing:0.02em;}.cls-10{letter-spacing:0em;}.cls-11,.cls-12{font-size:12px;}.cls-11{font-weight:400;}.cls-13{font-size:9px;}</style>
        <clipPath id="clip-path">
            <path class="cls-1" d="M733.7,485.91s-139.91-71-321.44-71-321.45,71-321.45,71V161.1s139.91-71,321.45-71,321.44,71,321.44,71Z"/>
        </clipPath>
    </defs>
    <g id="Grid">
        <g class="cls-2">
            <g id="Horizontal">
                <g id="Minor_grids" data-name="Minor grids">
                    <path class="cls-3" d="M90.81,485.91s139.91-71,321.45-71,321.44,71,321.44,71"/>
                    <path class="cls-3" d="M90.81,479.42s139.91-71,321.45-71,321.44,71,321.44,71"/>
                    <path class="cls-3" d="M90.81,472.92s139.91-71,321.45-71,321.44,71,321.44,71"/>
                    <path class="cls-3" d="M90.81,466.43s139.91-71,321.45-71,321.44,71,321.44,71"/>
                    <path class="cls-3" d="M90.81,459.93s139.91-71,321.45-71,321.44,71,321.44,71"/>
                    <path class="cls-3" d="M90.81,453.44s139.91-71,321.45-71,321.44,71,321.44,71"/>
                    <path class="cls-3" d="M90.81,446.94s139.91-71,321.45-71,321.44,71,321.44,71"/>
                    <path class="cls-3" d="M90.81,440.45s139.91-71,321.45-71,321.44,71,321.44,71"/>
                    <path class="cls-3" d="M90.81,434s139.91-71,321.45-71S733.7,434,733.7,434"/>
                    <path class="cls-3" d="M90.81,427.46s139.91-71,321.45-71,321.44,71,321.44,71"/>
                    <path class="cls-3" d="M90.81,421s139.91-71,321.45-71S733.7,421,733.7,421"/>
                    <path class="cls-3" d="M90.81,414.47s139.91-71,321.45-71,321.44,71,321.44,71"/>
                    <path class="cls-3" d="M90.81,408s139.91-71,321.45-71S733.7,408,733.7,408"/>
                    <path class="cls-3" d="M90.81,401.48s139.91-71,321.45-71,321.44,71,321.44,71"/>
                    <path class="cls-3" d="M90.81,395s139.91-71,321.45-71S733.7,395,733.7,395"/>
                    <path class="cls-3" d="M90.81,388.49s139.91-71,321.45-71,321.44,71,321.44,71"/>
                    <path class="cls-3" d="M90.81,382s139.91-71,321.45-71S733.7,382,733.7,382"/>
                    <path class="cls-3" d="M90.81,375.5s139.91-71,321.45-71,321.44,71,321.44,71"/>
                    <path class="cls-3" d="M90.81,369s139.91-71,321.45-71S733.7,369,733.7,369"/>
                    <path class="cls-3" d="M90.81,362.51s139.91-71,321.45-71,321.44,71,321.44,71"/>
                    <path class="cls-3" d="M90.81,356s139.91-71,321.45-71S733.7,356,733.7,356"/>
                    <path class="cls-3" d="M90.81,349.52s139.91-71,321.45-71,321.44,71,321.44,71"/>
                    <path class="cls-3" d="M90.81,343s139.91-71,321.45-71S733.7,343,733.7,343"/>
                    <path class="cls-3" d="M90.81,336.52s139.91-71,321.45-71,321.44,71,321.44,71"/>
                    <path class="cls-3" d="M90.81,330s139.91-71,321.45-71S733.7,330,733.7,330"/>
                    <path class="cls-3" d="M90.81,323.53s139.91-71,321.45-71,321.44,71,321.44,71"/>
                    <path class="cls-3" d="M90.81,317s139.91-71,321.45-71S733.7,317,733.7,317"/>
                    <path class="cls-3" d="M90.81,310.54s139.91-71,321.45-71,321.44,71,321.44,71"/>
                    <path class="cls-3" d="M90.81,304.05s139.91-71,321.45-71,321.44,71,321.44,71"/>
                    <path class="cls-3" d="M90.81,297.55s139.91-71,321.45-71,321.44,71,321.44,71"/>
                    <path class="cls-3" d="M90.81,291.06s139.91-71,321.45-71,321.44,71,321.44,71"/>
                    <path class="cls-3" d="M90.81,284.56s139.91-71,321.45-71,321.44,71,321.44,71"/>
                    <path class="cls-3" d="M90.81,278.07s139.91-71,321.45-71,321.44,71,321.44,71"/>
                    <path class="cls-3" d="M90.81,271.57s139.91-71,321.45-71,321.44,71,321.44,71"/>
                    <path class="cls-3" d="M90.81,265.08s139.91-71,321.45-71,321.44,71,321.44,71"/>
                    <path class="cls-3" d="M90.81,258.58s139.91-71,321.45-71,321.44,71,321.44,71"/>
                    <path class="cls-3" d="M90.81,252.09s139.91-71,321.45-71,321.44,71,321.44,71"/>
                    <path class="cls-3" d="M90.81,245.59s139.91-71,321.45-71,321.44,71,321.44,71"/>
                    <path class="cls-3" d="M90.81,239.1s139.91-71,321.45-71,321.44,71,321.44,71"/>
                    <path class="cls-3" d="M90.81,232.6s139.91-71,321.45-71,321.44,71,321.44,71"/>
                    <path class="cls-3" d="M90.81,226.11s139.91-71,321.45-71,321.44,71,321.44,71"/>
                    <path class="cls-3" d="M90.81,219.61s139.91-71,321.45-71,321.44,71,321.44,71"/>
                    <path class="cls-3" d="M90.81,213.12s139.91-71,321.45-71,321.44,71,321.44,71"/>
                    <path class="cls-3" d="M90.81,206.62s139.91-71,321.45-71,321.44,71,321.44,71"/>
                    <path class="cls-3" d="M90.81,200.12s139.91-71,321.45-71,321.44,71,321.44,71"/>
                    <path class="cls-3" d="M90.81,193.63s139.91-71,321.45-71,321.44,71,321.44,71"/>
                    <path class="cls-3" d="M90.81,187.13s139.91-71,321.45-71,321.44,71,321.44,71"/>
                    <path class="cls-3" d="M90.81,180.64s139.91-71,321.45-71,321.44,71,321.44,71"/>
                    <path class="cls-3" d="M90.81,174.14s139.91-71,321.45-71,321.44,71,321.44,71"/>
                    <path class="cls-3" d="M90.81,167.65s139.91-71,321.45-71,321.44,71,321.44,71"/>
                    <path class="cls-3" d="M90.81,161.15s139.91-71,321.45-71,321.44,71,321.44,71"/>
                </g>
                <g id="Mayor_grids" data-name="Mayor grids">
                    <path class="cls-4" d="M90.81,485.91s139.91-71,321.45-71,321.44,71,321.44,71"/>
                    <path class="cls-4" d="M90.81,453.44s139.91-71,321.45-71,321.44,71,321.44,71"/>
                    <path class="cls-4" d="M90.81,421s139.91-71,321.45-71S733.7,421,733.7,421"/>
                    <path class="cls-4" d="M90.81,388.49s139.91-71,321.45-71,321.44,71,321.44,71"/>
                    <path class="cls-4" d="M90.81,356s139.91-71,321.45-71S733.7,356,733.7,356"/>
                    <path class="cls-4" d="M90.81,323.53s139.91-71,321.45-71,321.44,71,321.44,71"/>
                    <path class="cls-4" d="M90.81,291.06s139.91-71,321.45-71,321.44,71,321.44,71"/>
                    <path class="cls-4" d="M90.81,258.58s139.91-71,321.45-71,321.44,71,321.44,71"/>
                    <path class="cls-4" d="M90.81,226.11s139.91-71,321.45-71,321.44,71,321.44,71"/>
                    <path class="cls-4" d="M90.81,193.63s139.91-71,321.45-71,321.44,71,321.44,71"/>
                    <path class="cls-4" d="M90.81,161.15s139.91-71,321.45-71,321.44,71,321.44,71"/>
                </g>
            </g>
            <g id="Vertical">
                <g id="Minor_grids-2" data-name="Minor grids">
                    <line class="cls-3" x1="90.81" y1="90.12" x2="90.81" y2="491.53"/>
                    <line class="cls-3" x1="101.52" y1="90.12" x2="101.52" y2="491.53"/>
                    <line class="cls-3" x1="112.24" y1="90.12" x2="112.24" y2="491.53"/>
                    <line class="cls-3" x1="122.95" y1="90.12" x2="122.95" y2="491.53"/>
                    <line class="cls-3" x1="133.67" y1="90.12" x2="133.67" y2="491.53"/>
                    <line class="cls-3" x1="144.38" y1="90.12" x2="144.38" y2="491.53"/>
                    <line class="cls-3" x1="155.1" y1="90.12" x2="155.1" y2="491.53"/>
                    <line class="cls-3" x1="165.81" y1="90.12" x2="165.81" y2="491.53"/>
                    <line class="cls-3" x1="176.53" y1="90.12" x2="176.53" y2="491.53"/>
                    <line class="cls-3" x1="187.24" y1="90.12" x2="187.24" y2="491.53"/>
                    <line class="cls-3" x1="197.96" y1="90.12" x2="197.96" y2="491.53"/>
                    <line class="cls-3" x1="208.67" y1="90.12" x2="208.67" y2="491.53"/>
                    <line class="cls-3" x1="219.39" y1="90.12" x2="219.39" y2="491.53"/>
                    <line class="cls-3" x1="230.1" y1="90.12" x2="230.1" y2="491.53"/>
                    <line class="cls-3" x1="240.82" y1="90.12" x2="240.82" y2="491.53"/>
                    <line class="cls-3" x1="251.53" y1="90.12" x2="251.53" y2="491.53"/>
                    <line class="cls-3" x1="262.25" y1="90.12" x2="262.25" y2="491.53"/>
                    <line class="cls-3" x1="272.96" y1="90.12" x2="272.96" y2="491.53"/>
                    <line class="cls-3" x1="283.68" y1="90.12" x2="283.68" y2="491.53"/>
                    <line class="cls-3" x1="294.39" y1="90.12" x2="294.39" y2="491.53"/>
                    <line class="cls-3" x1="305.11" y1="90.12" x2="305.11" y2="491.53"/>
                    <line class="cls-3" x1="315.82" y1="90.12" x2="315.82" y2="491.53"/>
                    <line class="cls-3" x1="326.54" y1="90.12" x2="326.54" y2="491.53"/>
                    <line class="cls-3" x1="337.25" y1="90.12" x2="337.25" y2="491.53"/>
                    <line class="cls-3" x1="347.97" y1="90.12" x2="347.97" y2="491.53"/>
                    <line class="cls-3" x1="358.68" y1="90.12" x2="358.68" y2="491.53"/>
                    <line class="cls-3" x1="369.4" y1="90.12" x2="369.4" y2="491.53"/>
                    <line class="cls-3" x1="380.11" y1="90.12" x2="380.11" y2="491.53"/>
                    <line class="cls-3" x1="390.83" y1="90.12" x2="390.83" y2="491.53"/>
                    <line class="cls-3" x1="401.54" y1="90.12" x2="401.54" y2="491.53"/>
                    <line class="cls-3" x1="412.26" y1="90.12" x2="412.26" y2="491.53"/>
                    <line class="cls-3" x1="422.97" y1="90.12" x2="422.97" y2="491.53"/>
                    <line class="cls-3" x1="433.69" y1="90.12" x2="433.69" y2="491.53"/>
                    <line class="cls-3" x1="444.4" y1="90.12" x2="444.4" y2="491.53"/>
                    <line class="cls-3" x1="455.11" y1="90.12" x2="455.11" y2="491.53"/>
                    <line class="cls-3" x1="465.83" y1="90.12" x2="465.83" y2="491.53"/>
                    <line class="cls-3" x1="476.54" y1="90.12" x2="476.54" y2="491.53"/>
                    <line class="cls-3" x1="487.26" y1="90.12" x2="487.26" y2="491.53"/>
                    <line class="cls-3" x1="497.97" y1="90.12" x2="497.97" y2="491.53"/>
                    <line class="cls-3" x1="508.69" y1="90.12" x2="508.69" y2="491.53"/>
                    <line class="cls-3" x1="519.4" y1="90.12" x2="519.4" y2="491.53"/>
                    <line class="cls-3" x1="530.12" y1="90.12" x2="530.12" y2="491.53"/>
                    <line class="cls-3" x1="540.83" y1="90.12" x2="540.83" y2="491.53"/>
                    <line class="cls-3" x1="551.55" y1="90.12" x2="551.55" y2="491.53"/>
                    <line class="cls-3" x1="562.26" y1="90.12" x2="562.26" y2="491.53"/>
                    <line class="cls-3" x1="572.98" y1="90.12" x2="572.98" y2="491.53"/>
                    <line class="cls-3" x1="583.69" y1="90.12" x2="583.69" y2="491.53"/>
                    <line class="cls-3" x1="594.41" y1="90.12" x2="594.41" y2="491.53"/>
                    <line class="cls-3" x1="605.12" y1="90.12" x2="605.12" y2="491.53"/>
                    <line class="cls-3" x1="615.84" y1="90.12" x2="615.84" y2="491.53"/>
                    <line class="cls-3" x1="626.55" y1="90.12" x2="626.55" y2="491.53"/>
                    <line class="cls-3" x1="637.27" y1="90.12" x2="637.27" y2="491.53"/>
                    <line class="cls-3" x1="647.98" y1="90.12" x2="647.98" y2="491.53"/>
                    <line class="cls-3" x1="658.7" y1="90.12" x2="658.7" y2="491.53"/>
                    <line class="cls-3" x1="669.41" y1="90.12" x2="669.41" y2="491.53"/>
                    <line class="cls-3" x1="680.13" y1="90.12" x2="680.13" y2="491.53"/>
                    <line class="cls-3" x1="690.84" y1="90.12" x2="690.84" y2="491.53"/>
                    <line class="cls-3" x1="701.56" y1="90.12" x2="701.56" y2="491.53"/>
                    <line class="cls-3" x1="712.27" y1="90.12" x2="712.27" y2="491.53"/>
                    <line class="cls-3" x1="722.99" y1="90.12" x2="722.99" y2="491.53"/>
                    <line class="cls-3" x1="733.7" y1="90.12" x2="733.7" y2="491.53"/>
                </g>
                <g id="Mayor_grids-2" data-name="Mayor grids">
                    <line class="cls-4" x1="90.81" y1="90.12" x2="90.81" y2="491.53"/>
                    <line class="cls-4" x1="144.38" y1="90.12" x2="144.38" y2="491.53"/>
                    <line class="cls-4" x1="197.96" y1="90.12" x2="197.96" y2="491.53"/>
                    <line class="cls-4" x1="251.53" y1="90.12" x2="251.53" y2="491.53"/>
                    <line class="cls-4" x1="305.11" y1="90.12" x2="305.11" y2="491.53"/>
                    <line class="cls-4" x1="358.68" y1="90.12" x2="358.68" y2="491.53"/>
                    <line class="cls-4" x1="412.26" y1="90.12" x2="412.26" y2="491.53"/>
                    <line class="cls-4" x1="465.83" y1="90.12" x2="465.83" y2="491.53"/>
                    <line class="cls-4" x1="519.4" y1="90.12" x2="519.4" y2="491.53"/>
                    <line class="cls-4" x1="572.98" y1="90.12" x2="572.98" y2="491.53"/>
                    <line class="cls-4" x1="626.55" y1="90.12" x2="626.55" y2="491.53"/>
                    <line class="cls-4" x1="680.13" y1="90.12" x2="680.13" y2="491.53"/>
                    <line class="cls-4" x1="733.7" y1="90.12" x2="733.7" y2="491.53"/>
                </g>
            </g>
        </g>
    </g>
    <g id="Vertical_grid_text" data-name="Vertical grid text">
        <text class="cls-5" transform="translate(740.47 164.7)">250<tspan x="0" y="32.4">225</tspan>
            <tspan x="0" y="64.8">200</tspan>
            <tspan x="0" y="97.2">175</tspan>
            <tspan x="0" y="129.6">150</tspan>
            <tspan x="0" y="162">125</tspan>
            <tspan x="0" y="194.4">100</tspan>
            <tspan x="2.96" y="226.8">75</tspan>
            <tspan x="2.96" y="259.2">50</tspan>
            <tspan x="2.96" y="291.6">25</tspan>
            <tspan x="5.93" y="324">0</tspan>
        </text>
        <text class="cls-5" transform="translate(44.92 139.33)">Altura</text>
        <text class="cls-5" transform="translate(33.97 164.7)">4000<tspan x="0" y="32.4">3600</tspan>
            <tspan x="0" y="64.8">3200</tspan>
            <tspan x="0" y="97.2">2800</tspan>
            <tspan x="0" y="129.6">2400</tspan>
            <tspan x="0" y="162">2000</tspan>
            <tspan x="0" y="194.4">1600</tspan>
            <tspan x="0" y="226.8">1200</tspan>
            <tspan x="2.96" y="259.2">800</tspan>
            <tspan x="2.96" y="291.6">400</tspan>
            <tspan x="8.89" y="324">0</tspan>
        </text>
        <text class="cls-5" transform="translate(42.28 153.12)">A</text>
        <text class="cls-5" transform="translate(61.29 164.7)">1000<tspan x="2.96" y="32.4">900</tspan>
            <tspan x="2.96" y="64.8">800</tspan>
            <tspan x="2.96" y="97.2">700</tspan>
            <tspan x="2.96" y="129.6">600</tspan>
            <tspan x="2.96" y="162">500</tspan>
            <tspan x="2.96" y="194.4">400</tspan>
            <tspan x="2.96" y="226.8">300</tspan>
            <tspan x="2.96" y="259.2">200</tspan>
            <tspan x="2.96" y="291.6">100</tspan>
            <tspan x="8.89" y="324">0</tspan>
        </text>
        <text class="cls-5" transform="translate(70 153.12)">B</text>
        <text class="cls-5" transform="translate(745.96 153.12)">C</text>
        <text class="cls-5" transform="translate(12.56 309.55)">[m]</text>
    </g>
    <text class="cls-5" transform="translate(377.99 435.53)">Distancia [km]</text>
    <text class="cls-5" transform="translate(325.44 466.97)">Graduación total</text>
    <text class="cls-6" transform="translate(419.83 456.87)">A = 240 km<tspan x="0" y="10.4">B = 120 km</tspan>
        <tspan x="0" y="20.8">C = 60 km</tspan>
    </text>
    <text class="cls-7" transform="translate(347.49 63.13)">
        <tspan class="cls-8">P</tspan>
        <tspan x="8.77" y="0">e</tspan>
        <tspan class="cls-9" x="16.88" y="0">r</tspan>
        <tspan x="23.23" y="0">fil </tspan>
        <tspan class="cls-10" x="41.64" y="0">t</tspan>
        <tspan x="47.42" y="0">opográfico</tspan>
        <tspan class="cls-11">
            <tspan x="42.37" y="18.38">(K=4/3)</tspan>
        </tspan>
    </text>
    <text class="cls-12" transform="translate(181.94 510.17)">Estacion:</text>
    <rect class="cls-1" x="178.94" y="497.77" width="139.32" height="16.83"/>
    <line class="cls-4" x1="178.94" y1="514.6" x2="318.26" y2="514.6"/>
    <text class="cls-12" transform="translate(181.94 530)">Altitud:</text>
    <text class="cls-13" transform="translate(307.55 531)">m.</text>
    <rect class="cls-1" x="178.94" y="517.6" width="139.32" height="16.83"/>
    <line class="cls-4" x1="178.94" y1="534.43" x2="318.26" y2="534.43"/>
    <path d="M189.54,549.83h-1.09l-.89-2.36H184l-.84,2.36h-1.1l3.23-8.4h1Zm-2.3-3.24L185.92,543a3.38,3.38,0,0,1-.13-.56h0a3.23,3.23,0,0,1-.14.56l-1.3,3.58Z"/>
    <path d="M191.61,549.83h-1V541h1Z"/>
    <path d="M196.34,549.77a1.82,1.82,0,0,1-.9.19c-1.05,0-1.57-.59-1.57-1.76v-3.55h-1v-.82h1v-1.46l1-.32v1.78h1.51v.82h-1.51V548a1.45,1.45,0,0,0,.2.86.84.84,0,0,0,.68.26,1.05,1.05,0,0,0,.63-.2Z"/>
    <path d="M202.47,549.83h-1v-1h0a2,2,0,0,1-1.85,1.09c-1.43,0-2.15-.85-2.15-2.55v-3.59h1v3.43c0,1.27.48,1.9,1.45,1.9a1.46,1.46,0,0,0,1.16-.52,2,2,0,0,0,.45-1.35v-3.46h1Z"/>
    <path d="M207.54,544.8a1.18,1.18,0,0,0-.73-.19,1.2,1.2,0,0,0-1,.58,2.64,2.64,0,0,0-.42,1.58v3.06h-1v-6h1v1.24h0a2,2,0,0,1,.62-1,1.45,1.45,0,0,1,.95-.36,1.41,1.41,0,0,1,.57.09Z"/>
    <path d="M212.88,549.83h-1v-.94h0a2,2,0,0,1-1.85,1.08,2,2,0,0,1-1.4-.47,1.65,1.65,0,0,1-.51-1.26c0-1.12.66-1.78,2-2l1.8-.25c0-1-.41-1.53-1.24-1.53a2.9,2.9,0,0,0-2,.74v-1a3.7,3.7,0,0,1,2-.56c1.41,0,2.12.75,2.12,2.24Zm-1-3-1.45.2a2.48,2.48,0,0,0-1,.34,1,1,0,0,0-.34.84.9.9,0,0,0,.32.71,1.18,1.18,0,0,0,.83.28,1.51,1.51,0,0,0,1.18-.5,1.8,1.8,0,0,0,.47-1.27Z"/>
    <path d="M223.1,549.83h-1v-1h0a2.21,2.21,0,0,1-2.06,1.16,2.27,2.27,0,0,1-1.81-.8,3.32,3.32,0,0,1-.67-2.2,3.57,3.57,0,0,1,.75-2.38,2.46,2.46,0,0,1,2-.9,1.91,1.91,0,0,1,1.8,1h0V541h1Zm-1-2.71v-.89a1.73,1.73,0,0,0-.48-1.23,1.78,1.78,0,0,0-2.6.14,2.81,2.81,0,0,0-.51,1.78,2.54,2.54,0,0,0,.48,1.64,1.6,1.6,0,0,0,1.3.6,1.65,1.65,0,0,0,1.31-.58A2.16,2.16,0,0,0,222.14,547.12Z"/>
    <path d="M229.87,547.07h-4.24a2.25,2.25,0,0,0,.54,1.55,1.85,1.85,0,0,0,1.42.54,2.93,2.93,0,0,0,1.86-.67v.91a3.5,3.5,0,0,1-2.09.57,2.52,2.52,0,0,1-2-.82,3.36,3.36,0,0,1-.73-2.3,3.29,3.29,0,0,1,.8-2.28,2.53,2.53,0,0,1,2-.88,2.25,2.25,0,0,1,1.82.76,3.18,3.18,0,0,1,.65,2.12Zm-1-.81a2,2,0,0,0-.4-1.3,1.36,1.36,0,0,0-1.1-.46,1.55,1.55,0,0,0-1.15.48,2.25,2.25,0,0,0-.59,1.28Z"/>
    <path d="M187.2,560.23h-1v-.94h0a2.2,2.2,0,0,1-3.25.61,1.65,1.65,0,0,1-.51-1.26c0-1.12.66-1.78,2-2l1.8-.25q0-1.53-1.23-1.53a2.91,2.91,0,0,0-2,.74v-1a3.76,3.76,0,0,1,2-.56c1.41,0,2.11.75,2.11,2.24Zm-1-3-1.44.19a2.37,2.37,0,0,0-1,.34.93.93,0,0,0-.34.84.89.89,0,0,0,.31.71,1.2,1.2,0,0,0,.84.28,1.53,1.53,0,0,0,1.18-.5,1.79,1.79,0,0,0,.46-1.27Z"/>
    <path d="M194,560.23h-1v-3.42c0-1.27-.46-1.91-1.39-1.91a1.5,1.5,0,0,0-1.19.54,2,2,0,0,0-.47,1.37v3.42h-1v-6h1v1h0a2.16,2.16,0,0,1,2-1.14,1.81,1.81,0,0,1,1.5.64,2.79,2.79,0,0,1,.52,1.83Z"/>
    <path d="M198.59,560.17a1.82,1.82,0,0,1-.9.19c-1.05,0-1.57-.59-1.57-1.76v-3.55h-1v-.82h1v-1.46l1-.31v1.77h1.51v.82h-1.51v3.38a1.45,1.45,0,0,0,.2.86.84.84,0,0,0,.68.26,1.05,1.05,0,0,0,.63-.2Z"/>
    <path d="M204.69,557.47h-4.23A2.21,2.21,0,0,0,201,559a1.85,1.85,0,0,0,1.41.54,2.94,2.94,0,0,0,1.87-.67v.91a3.52,3.52,0,0,1-2.09.57,2.52,2.52,0,0,1-2-.82,3.81,3.81,0,0,1,.07-4.58,2.51,2.51,0,0,1,2-.88,2.25,2.25,0,0,1,1.82.76,3.18,3.18,0,0,1,.64,2.12Zm-1-.81a2,2,0,0,0-.4-1.3,1.37,1.37,0,0,0-1.1-.46,1.55,1.55,0,0,0-1.15.48,2.19,2.19,0,0,0-.59,1.28Z"/>
    <path d="M211.13,560.23h-1v-3.42c0-1.27-.47-1.91-1.4-1.91a1.5,1.5,0,0,0-1.19.54,2,2,0,0,0-.47,1.37v3.42h-1v-6h1v1h0a2.16,2.16,0,0,1,2-1.14,1.83,1.83,0,0,1,1.51.64,2.85,2.85,0,0,1,.52,1.83Z"/>
    <path d="M217.23,560.23h-1v-.94h0a2.2,2.2,0,0,1-3.25.61,1.65,1.65,0,0,1-.51-1.26c0-1.12.66-1.78,2-2l1.8-.25q0-1.53-1.23-1.53a2.91,2.91,0,0,0-2,.74v-1a3.76,3.76,0,0,1,2-.56c1.41,0,2.11.75,2.11,2.24Zm-1-3-1.45.19a2.37,2.37,0,0,0-1,.34.93.93,0,0,0-.34.84.89.89,0,0,0,.31.71,1.2,1.2,0,0,0,.84.28,1.53,1.53,0,0,0,1.18-.5,1.79,1.79,0,0,0,.46-1.27Z"/>
    <path d="M219.38,555.4a.6.6,0,0,1-.46-.19.62.62,0,0,1-.19-.46.65.65,0,0,1,.65-.65.64.64,0,0,1,.47.19.6.6,0,0,1,.19.46.62.62,0,0,1-.19.46A.64.64,0,0,1,219.38,555.4Zm0,5a.65.65,0,0,1-.65-.66.62.62,0,0,1,.19-.46.61.61,0,0,1,.46-.2.65.65,0,0,1,.47.2.62.62,0,0,1,.19.46.64.64,0,0,1-.19.47A.68.68,0,0,1,219.38,560.36Z"/>
    <text class="cls-13" transform="translate(307.55 561.6)">m.</text>
    <rect class="cls-1" x="178.94" y="537.43" width="139.32" height="27.6"/>
    <line class="cls-4" x1="178.94" y1="565.02" x2="318.26" y2="565.02"/>
    <text class="cls-12" transform="translate(500.57 510.17)">Estacion:</text>
    <rect class="cls-1" x="497.57" y="497.77" width="139.32" height="16.83"/>
    <line class="cls-4" x1="497.57" y1="514.6" x2="636.89" y2="514.6"/>
    <text class="cls-12" transform="translate(500.57 530)">Altitud:</text>
    <text class="cls-13" transform="translate(626.19 531)">m.</text>
    <rect class="cls-1" x="497.57" y="517.6" width="139.32" height="16.83"/>
    <line class="cls-4" x1="497.57" y1="534.43" x2="636.89" y2="534.43"/>
    <path d="M508.18,549.83h-1.09l-.89-2.36h-3.56l-.84,2.36h-1.1l3.23-8.4h1Zm-2.3-3.24L504.56,543a3.38,3.38,0,0,1-.13-.56h0a3.23,3.23,0,0,1-.14.56L503,546.59Z"/>
    <path d="M510.25,549.83h-1V541h1Z"/>
    <path d="M515,549.77a1.82,1.82,0,0,1-.9.19c-1.05,0-1.58-.59-1.58-1.76v-3.55h-1v-.82h1v-1.46l1-.32v1.78H515v.82h-1.52V548a1.37,1.37,0,0,0,.21.86.83.83,0,0,0,.68.26,1.05,1.05,0,0,0,.63-.2Z"/>
    <path d="M521.11,549.83h-1v-1h0a2,2,0,0,1-1.85,1.09c-1.43,0-2.15-.85-2.15-2.55v-3.59h1v3.43c0,1.27.48,1.9,1.45,1.9a1.47,1.47,0,0,0,1.16-.52,2,2,0,0,0,.45-1.35v-3.46h1Z"/>
    <path d="M526.18,544.8a1.18,1.18,0,0,0-.73-.19,1.23,1.23,0,0,0-1,.58,2.72,2.72,0,0,0-.41,1.58v3.06h-1v-6h1v1.24h0a2,2,0,0,1,.62-1,1.43,1.43,0,0,1,1-.36,1.41,1.41,0,0,1,.57.09Z"/>
    <path d="M531.52,549.83h-1v-.94h0a2.2,2.2,0,0,1-3.25.61,1.68,1.68,0,0,1-.5-1.26c0-1.12.66-1.78,2-2l1.8-.25c0-1-.42-1.53-1.24-1.53a2.94,2.94,0,0,0-2,.74v-1a3.76,3.76,0,0,1,2-.56c1.41,0,2.12.75,2.12,2.24Zm-1-3-1.45.2a2.43,2.43,0,0,0-1,.34,1,1,0,0,0-.34.84.9.9,0,0,0,.32.71,1.16,1.16,0,0,0,.83.28,1.51,1.51,0,0,0,1.18-.5,1.8,1.8,0,0,0,.47-1.27Z"/>
    <path d="M541.74,549.83h-1v-1h0a2.21,2.21,0,0,1-2.06,1.16,2.27,2.27,0,0,1-1.81-.8,3.32,3.32,0,0,1-.67-2.2,3.57,3.57,0,0,1,.75-2.38,2.46,2.46,0,0,1,2-.9,1.91,1.91,0,0,1,1.8,1h0V541h1Zm-1-2.71v-.89a1.7,1.7,0,0,0-.49-1.23,1.61,1.61,0,0,0-1.21-.5,1.67,1.67,0,0,0-1.39.64,2.87,2.87,0,0,0-.5,1.78,2.54,2.54,0,0,0,.48,1.64,1.73,1.73,0,0,0,2.6,0A2.11,2.11,0,0,0,540.78,547.12Z"/>
    <path d="M548.5,547.07h-4.23a2.21,2.21,0,0,0,.54,1.55,1.85,1.85,0,0,0,1.41.54,2.94,2.94,0,0,0,1.87-.67v.91A3.52,3.52,0,0,1,546,550a2.52,2.52,0,0,1-2-.82,3.81,3.81,0,0,1,.07-4.58,2.51,2.51,0,0,1,2-.88,2.25,2.25,0,0,1,1.82.76,3.18,3.18,0,0,1,.64,2.12Zm-1-.81a2,2,0,0,0-.4-1.3,1.37,1.37,0,0,0-1.1-.46,1.55,1.55,0,0,0-1.15.48,2.19,2.19,0,0,0-.59,1.28Z"/>
    <path d="M505.84,560.23h-1v-.94h0a2,2,0,0,1-1.85,1.08,2,2,0,0,1-1.4-.47,1.65,1.65,0,0,1-.51-1.26c0-1.12.66-1.78,2-2l1.8-.25c0-1-.41-1.53-1.24-1.53a2.9,2.9,0,0,0-1.95.74v-1a3.76,3.76,0,0,1,2-.56c1.41,0,2.11.75,2.11,2.24Zm-1-3-1.45.19a2.37,2.37,0,0,0-1,.34.93.93,0,0,0-.34.84.89.89,0,0,0,.31.71,1.19,1.19,0,0,0,.83.28,1.55,1.55,0,0,0,1.19-.5,1.79,1.79,0,0,0,.46-1.27Z"/>
    <path d="M512.63,560.23h-1v-3.42c0-1.27-.46-1.91-1.39-1.91a1.54,1.54,0,0,0-1.2.54,2,2,0,0,0-.47,1.37v3.42h-1v-6h1v1h0a2.16,2.16,0,0,1,2-1.14,1.82,1.82,0,0,1,1.5.64,2.79,2.79,0,0,1,.52,1.83Z"/>
    <path d="M517.23,560.17a1.82,1.82,0,0,1-.9.19c-1.05,0-1.58-.59-1.58-1.76v-3.55h-1v-.82h1v-1.46l1-.31v1.77h1.52v.82h-1.52v3.38a1.37,1.37,0,0,0,.21.86.83.83,0,0,0,.68.26,1.05,1.05,0,0,0,.63-.2Z"/>
    <path d="M523.33,557.47H519.1a2.25,2.25,0,0,0,.53,1.55,1.88,1.88,0,0,0,1.42.54,2.94,2.94,0,0,0,1.87-.67v.91a3.53,3.53,0,0,1-2.1.57,2.51,2.51,0,0,1-2-.82,3.83,3.83,0,0,1,.06-4.58,2.55,2.55,0,0,1,2-.88,2.25,2.25,0,0,1,1.82.76,3.18,3.18,0,0,1,.64,2.12Zm-1-.81a2,2,0,0,0-.4-1.3,1.37,1.37,0,0,0-1.1-.46,1.57,1.57,0,0,0-1.16.48,2.24,2.24,0,0,0-.58,1.28Z"/>
    <path d="M529.77,560.23h-1v-3.42c0-1.27-.46-1.91-1.39-1.91a1.5,1.5,0,0,0-1.19.54,2,2,0,0,0-.47,1.37v3.42h-1v-6h1v1h0a2.16,2.16,0,0,1,2-1.14,1.81,1.81,0,0,1,1.5.64,2.79,2.79,0,0,1,.53,1.83Z"/>
    <path d="M535.87,560.23h-1v-.94h0a2,2,0,0,1-1.85,1.08,2,2,0,0,1-1.4-.47,1.65,1.65,0,0,1-.51-1.26c0-1.12.66-1.78,2-2l1.8-.25c0-1-.41-1.53-1.24-1.53a2.9,2.9,0,0,0-1.95.74v-1a3.76,3.76,0,0,1,2-.56c1.41,0,2.11.75,2.11,2.24Zm-1-3-1.45.19a2.37,2.37,0,0,0-1,.34.93.93,0,0,0-.34.84.89.89,0,0,0,.31.71,1.19,1.19,0,0,0,.83.28,1.51,1.51,0,0,0,1.18-.5,1.8,1.8,0,0,0,.47-1.27Z"/>
    <path d="M538,555.4a.6.6,0,0,1-.46-.19.62.62,0,0,1-.19-.46.65.65,0,0,1,1.11-.46.61.61,0,0,1,.2.46.63.63,0,0,1-.2.46A.6.6,0,0,1,538,555.4Zm0,5a.65.65,0,0,1-.65-.66.62.62,0,0,1,.19-.46.63.63,0,0,1,.92,0,.63.63,0,0,1,.2.46.65.65,0,0,1-.2.47A.64.64,0,0,1,538,560.36Z"/>
    <text class="cls-13" transform="translate(626.19 561.6)">m.</text>
    <rect class="cls-1" x="497.57" y="537.43" width="139.32" height="27.6"/>
    <line class="cls-4" x1="497.57" y1="565.02" x2="636.89" y2="565.02"/>
    <text class="cls-12" transform="translate(341.26 518.06)">Distancia</text>
    <text class="cls-13" transform="translate(462.4 519.06)">km.</text>
    <rect class="cls-1" x="338.26" y="505.66" width="139.32" height="16.83"/>
    <line class="cls-4" x1="338.26" y1="522.48" x2="477.57" y2="522.48"/>
    <rect class="cls-1" width="792" height="612"/>
    <rect class="cls-1" width="792" height="612"/>
</svg>